<svg width="13" height="8" viewBox="0 0 13 8" fill="none" xmlns="http://www.w3.org/2000/svg">
<path d="M6.91843 5.99068L7.27198 5.63712L11.7608 1.14834C11.8374 1.07563 11.9392 1.03545 12.0449 1.03636C12.1518 1.03729 12.254 1.08016 12.3296 1.15572C12.4051 1.23129 12.448 1.33351 12.4489 1.44037C12.4499 1.54607 12.4097 1.64794 12.337 1.72452L7.20658 6.85491C7.20656 6.85493 7.20655 6.85495 7.20653 6.85497C7.1301 6.93134 7.02648 6.97424 6.91843 6.97424C6.81039 6.97424 6.70676 6.93134 6.63034 6.85497L6.63028 6.85491M6.91843 5.99068L6.63028 6.85491M6.91843 5.99068L6.56488 5.63712M6.91843 5.99068L6.56488 5.63712M6.63028 6.85491L1.49628 1.72091C1.49627 1.7209 1.49625 1.72088 1.49623 1.72086C1.41986 1.64443 1.37695 1.54081 1.37695 1.43276C1.37695 1.32474 1.41984 1.22114 1.49618 1.14472C1.49621 1.14469 1.49625 1.14465 1.49628 1.14461M6.63028 6.85491L1.49628 1.14461M1.49628 1.14461C1.5727 1.06827 1.6763 1.02539 1.78433 1.02539C1.89237 1.02539 1.996 1.06829 2.07242 1.14467M1.49628 1.14461L2.07242 1.14467M2.07242 1.14467C2.07244 1.14469 2.07246 1.1447 2.07248 1.14472M2.07242 1.14467L2.07248 1.14472M2.07248 1.14472L6.56488 5.63712M2.07248 1.14472L6.56488 5.63712" stroke="white" style="stroke:white;stroke-opacity:1;"/>
</svg>
