<svg width="25" height="24" viewBox="0 0 25 24" fill="none" xmlns="http://www.w3.org/2000/svg">
<path fill-rule="evenodd" clip-rule="evenodd" d="M12.5098 1C12.2231 0.999962 11.9398 1.06155 11.679 1.18059C11.4182 1.29963 11.1861 1.47333 10.9983 1.68994C10.8105 1.90654 10.6715 2.16098 10.5907 2.43601C10.5098 2.71104 10.4891 3.00024 10.5298 3.284C9.08039 3.71193 7.80833 4.59722 6.90356 5.80767C5.99878 7.01812 5.50985 8.48877 5.50977 10V18H4.50977C4.24455 18 3.9902 18.1054 3.80266 18.2929C3.61512 18.4804 3.50977 18.7348 3.50977 19C3.50977 19.2652 3.61512 19.5196 3.80266 19.7071C3.9902 19.8946 4.24455 20 4.50977 20H20.5098C20.775 20 21.0293 19.8946 21.2169 19.7071C21.4044 19.5196 21.5098 19.2652 21.5098 19C21.5098 18.7348 21.4044 18.4804 21.2169 18.2929C21.0293 18.1054 20.775 18 20.5098 18H19.5098V10C19.5097 8.48877 19.0207 7.01812 18.116 5.80767C17.2112 4.59722 15.9391 3.71193 14.4898 3.284C14.5305 3.00024 14.5097 2.71104 14.4289 2.43601C14.348 2.16098 14.209 1.90654 14.0212 1.68994C13.8335 1.47333 13.6013 1.29963 13.3405 1.18059C13.0798 1.06155 12.7964 0.999962 12.5098 1ZM14.5098 22C14.5098 22.2652 14.4044 22.5196 14.2169 22.7071C14.0293 22.8946 13.775 23 13.5098 23H11.5098C11.2445 23 10.9902 22.8946 10.8027 22.7071C10.6151 22.5196 10.5098 22.2652 10.5098 22C10.5098 21.7348 10.6151 21.4804 10.8027 21.2929C10.9902 21.1054 11.2445 21 11.5098 21H13.5098C13.775 21 14.0293 21.1054 14.2169 21.2929C14.4044 21.4804 14.5098 21.7348 14.5098 22Z" fill="white" style="fill:white;fill-opacity:1;"/>
<circle cx="18.7207" cy="5.20703" r="3.28906" fill="#62C9CC" stroke="#12123A" style="fill:#62C9CC;fill:color(display-p3 0.3843 0.7882 0.8000);fill-opacity:1;stroke:#12123A;stroke:color(display-p3 0.0706 0.0706 0.2275);stroke-opacity:1;"/>
</svg>
