<svg width="95" height="18" viewBox="0 0 95 18" fill="none" xmlns="http://www.w3.org/2000/svg">
<path d="M30.1954 2.48249C30.1954 4.02378 30.0556 4.35071 29.2637 4.35071C28.5649 4.35071 28.332 4.67765 28.332 5.51835C28.332 6.35905 28.5649 6.68599 29.2637 6.68599C30.1022 6.68599 30.1954 7.01293 30.1954 10.4224C30.1954 13.8319 30.3351 14.299 31.36 15.3265C32.1985 16.1672 32.9904 16.4941 34.3879 16.4941C36.0649 16.4941 36.2513 16.4007 36.2513 15.3265C36.2513 14.4391 36.0183 14.1589 35.1798 14.1589C33.4562 14.1589 32.9904 13.2715 32.9904 9.86196V6.68599H34.3879C35.5525 6.68599 35.7854 6.49917 35.7854 5.51835C35.7854 4.53753 35.5525 4.35071 34.3879 4.35071C33.0836 4.35071 32.9904 4.2573 32.9904 2.48249C32.9904 0.707685 32.8972 0.614274 31.5929 0.614274C30.2885 0.614274 30.1954 0.707685 30.1954 2.48249Z" fill="white" style="fill:white;fill-opacity:1;"/>
<path d="M75.3809 2.52937C75.3809 4.07065 75.2412 4.39759 74.4493 4.39759C73.7505 4.39759 73.5176 4.72453 73.5176 5.56523C73.5176 6.40592 73.7505 6.73286 74.4493 6.73286C75.2878 6.73286 75.3809 7.0598 75.3809 10.4693C75.3809 13.8788 75.5207 14.3459 76.5455 15.3734C77.384 16.2141 78.1759 16.541 79.5735 16.541C81.2505 16.541 81.4368 16.4476 81.4368 15.3734C81.4368 14.486 81.2039 14.2057 80.3654 14.2057C78.6418 14.2057 78.1759 13.3183 78.1759 9.90884V6.73286H79.5735C80.7381 6.73286 80.971 6.54604 80.971 5.56523C80.971 4.58441 80.7381 4.39759 79.5735 4.39759C78.2691 4.39759 78.1759 4.30418 78.1759 2.52937C78.1759 0.75456 78.0828 0.661149 76.7784 0.661149C75.4741 0.661149 75.3809 0.75456 75.3809 2.52937Z" fill="white" style="fill:white;fill-opacity:1;"/>
<path d="M4.34544 4.21095C0.432412 5.28518 -1.29119 10.6563 1.08458 14.346C2.48209 16.4478 6.58146 17.2418 8.67773 15.7472C9.6094 15.0933 9.70257 15.0933 9.70257 15.7472C9.70257 16.261 10.1684 16.4945 11.1001 16.4945H12.4976V10.4228V4.35107H11.1001C10.1218 4.35107 9.70257 4.5846 9.70257 5.14506C9.70257 5.84564 9.65598 5.84564 8.86406 5.14506C7.93239 4.25766 5.74295 3.83731 4.34544 4.21095ZM8.77089 7.62045C10.215 9.06832 10.0287 11.9641 8.49139 13.1784C6.11562 15.0466 3.36718 13.9257 2.90135 10.8898C2.34234 7.48034 6.39512 5.23847 8.77089 7.62045Z" fill="white" style="fill:white;fill-opacity:1;"/>
<path d="M19.8559 4.72453C18.4584 5.47182 18.0857 5.51852 18.0857 5.00476C18.0857 4.58441 17.5733 4.35088 16.6882 4.35088H15.2441L15.3839 10.2825L15.5236 16.2608L16.828 16.4009L18.0857 16.541V13.0381C18.0857 8.88132 18.5982 7.34003 20.1354 6.59275C21.0671 6.1724 21.5329 6.2191 22.5112 6.87298C23.6292 7.62027 23.6758 7.8538 23.6758 12.0573V16.4943H25.0733H26.4708V11.6369C26.4708 7.19992 26.3776 6.63945 25.446 5.56523C24.0019 3.88383 21.9988 3.6036 19.8559 4.72453Z" fill="white" style="fill:white;fill-opacity:1;"/>
<path d="M40.9562 4.49083C38.86 5.23812 37.6022 7.01293 37.3227 9.58173C36.8569 13.6918 39.2792 16.4941 43.2388 16.4941C46.0339 16.4941 48.8289 14.766 48.8289 13.0379C48.8289 12.4308 46.127 12.8044 45.568 13.4583C44.7295 14.4858 42.0277 14.3457 40.9097 13.2248C39.2792 11.5901 39.7916 11.3565 44.4034 11.3565H48.8289V9.72184C48.8289 5.47164 45.1022 2.99625 40.9562 4.49083ZM45.1954 7.01293C46.8258 8.5075 46.2668 9.02126 43.0059 9.02126C39.7916 9.02126 39.3724 8.69432 40.9097 7.15304C42.0277 6.03211 44.0308 5.9387 45.1954 7.01293Z" fill="white" style="fill:white;fill-opacity:1;"/>
<path d="M63.5049 4.2106C61.6881 4.72436 60.5236 5.84529 59.7316 7.85363C58.7068 10.6092 59.1726 12.9445 61.1757 14.9529C62.4335 16.2139 63.0857 16.4941 64.7627 16.4941C65.8807 16.4941 67.2782 16.1672 67.8372 15.7469C68.7689 15.093 68.862 15.093 68.862 15.7469C68.862 16.2606 69.3279 16.4941 70.2596 16.4941H71.6571V10.4224V4.35071H70.2596C69.2813 4.35071 68.862 4.58424 68.862 5.14471C68.862 5.84529 68.8155 5.84529 68.0235 5.14471C67.0919 4.2573 64.9024 3.83695 63.5049 4.2106ZM67.9304 7.6201C69.1881 8.88115 69.1881 11.7769 67.9304 13.1313C66.7192 14.3924 64.6695 14.4391 63.2254 13.2715C61.8279 12.1505 61.6881 9.11467 62.9925 7.6668C64.1571 6.40576 66.6726 6.35905 67.9304 7.6201Z" fill="white" style="fill:white;fill-opacity:1;"/>
<path d="M86.792 4.92544C84.9753 5.4392 83.8107 6.56013 83.0187 8.56847C81.9939 11.3241 82.4597 13.6594 84.4628 15.6677C85.7206 16.9288 86.3728 17.209 88.0498 17.209C89.1678 17.209 90.5653 16.882 91.1243 16.4617C92.056 15.8078 92.1491 15.8078 92.1491 16.4617C92.1491 16.9755 92.615 17.209 93.5467 17.209H94.9442V11.1373V5.06556H93.5467C92.5684 5.06556 92.1491 5.29908 92.1491 5.85955C92.1491 6.56013 92.1026 6.56013 91.3106 5.85955C90.379 4.97215 88.1895 4.5518 86.792 4.92544ZM91.2175 8.33494C92.4752 9.59599 92.4752 12.4917 91.2175 13.8462C90.0063 15.1072 87.9566 15.1539 86.5125 13.9863C85.115 12.8654 84.9753 9.82952 86.2796 8.38165C87.4442 7.1206 89.9597 7.07389 91.2175 8.33494Z" fill="white" style="fill:white;fill-opacity:1;"/>
<path d="M51.1621 10.4224V16.4941H52.5596H53.9571V13.0846C53.9571 9.02126 54.6093 7.52669 56.659 6.91951C57.777 6.59258 58.1497 6.21893 58.1497 5.42494C58.1497 4.02377 56.2397 3.93036 54.8888 5.28482L53.9571 6.21893V5.28482C53.9571 4.53753 53.631 4.35071 52.5596 4.35071H51.1621V10.4224Z" fill="white" style="fill:white;fill-opacity:1;"/>
</svg>
