<svg width="24" height="24" viewBox="0 0 24 24" fill="none" xmlns="http://www.w3.org/2000/svg">
<g opacity="0.7" clip-path="url(#clip0_78995_304)">
<path fill-rule="evenodd" clip-rule="evenodd" d="M13 2.05C15.295 2.2812 17.4396 3.29842 19.0706 4.92944C20.7016 6.56045 21.7188 8.70502 21.95 11H20C19.7348 11 19.4804 11.1054 19.2929 11.2929C19.1054 11.4804 19 11.7348 19 12C19 12.2652 19.1054 12.5196 19.2929 12.7071C19.4804 12.8946 19.7348 13 20 13H21.95C21.449 18.053 17.185 22 12 22C6.815 22 2.551 18.053 2.05 13H4C4.26522 13 4.51957 12.8946 4.70711 12.7071C4.89464 12.5196 5 12.2652 5 12C5 11.7348 4.89464 11.4804 4.70711 11.2929C4.51957 11.1054 4.26522 11 4 11H2.05C2.2812 8.70502 3.29842 6.56045 4.92944 4.92944C6.56045 3.29842 8.70502 2.2812 11 2.05V4C11 4.26522 11.1054 4.51957 11.2929 4.70711C11.4804 4.89464 11.7348 5 12 5C12.2652 5 12.5196 4.89464 12.7071 4.70711C12.8946 4.51957 13 4.26522 13 4V2.05ZM17.78 6.22L12.937 8.685L12.564 8.882L11.954 9.192C11.234 9.562 10.5 9.964 9.949 10.515C8.978 11.487 8.86 13.103 9.879 14.121C10.897 15.14 12.513 15.022 13.485 14.051C13.957 13.579 14.32 12.973 14.647 12.355L15.118 11.436L15.48 10.738L17.78 6.22ZM13.162 10.838L13.05 11.048L12.937 11.264C12.728 11.666 12.511 12.086 12.239 12.436L12.071 12.636C11.793 12.914 11.446 12.86 11.293 12.707C11.155 12.569 11.097 12.275 11.29 12.015L11.363 11.93C11.682 11.636 12.087 11.404 12.493 11.19L12.736 11.063C12.882 10.988 13.026 10.913 13.162 10.838Z" fill="white" style="fill:white;fill-opacity:1;"/>
</g>
<defs>
<clipPath id="clip0_78995_304">
<rect width="24" height="24" fill="white" style="fill:white;fill-opacity:1;"/>
</clipPath>
</defs>
</svg>
