<svg width="24" height="24" viewBox="0 0 24 24" fill="none" xmlns="http://www.w3.org/2000/svg">
<g opacity="0.7">
<path d="M5.95946 7H2.70252C2.32828 7 1.95404 7.32 2.00461 7.84L3.5825 17.83C3.5825 17.83 5.45373 10.47 5.81786 8.7C5.92912 8.17 6.43485 8 6.8091 8H12.0283C12.0283 8 11.3203 5.92 11.2495 5.69C11.1281 5.25 10.9056 5 10.4605 5H7.11254C6.74841 5 6.40451 5.23 6.30336 5.64C6.21233 6.04 5.95946 7 5.95946 7ZM10.8954 7H6.84956C6.84956 7 7.27438 6 7.72954 6H9.88397C10.3695 6 10.8954 7 10.8954 7ZM4.61421 18.25C4.30065 18.72 3.84549 19 3.33975 19H19.2502C19.7964 19 20.1807 18.69 20.292 18.17C20.7371 15.98 21.9913 9.73 21.9913 9.73C22.0621 9.23 21.6878 9 21.3642 9H18.0971V7.53C18.0971 7.37 17.8341 7 17.4295 7H13.6264C13.1005 7 12.7464 7.58 12.7464 7.58L12.0283 9H7.5677C7.24403 9 6.93048 9.19 6.86979 9.5C6.86979 9.5 5.26155 16.2 5.13006 16.83C5.05925 17.2 4.90753 17.82 4.61421 18.25ZM17.47 9H13.0398C13.0398 9 13.6264 8 14.1827 8H16.499C17.2171 8 17.47 9 17.47 9Z" fill="white" style="fill:white;fill-opacity:1;"/>
</g>
</svg>
