<svg width="24" height="24" viewBox="0 0 24 24" fill="none" xmlns="http://www.w3.org/2000/svg">
<path d="M15.2501 12.9991C16.2171 12.9991 17.0001 13.7831 17.0001 14.7491V19.2531C17.0001 19.7172 16.8157 20.1623 16.4875 20.4905C16.1593 20.8187 15.7142 21.0031 15.2501 21.0031H3.75009C3.28596 21.0031 2.84085 20.8187 2.51266 20.4905C2.18447 20.1623 2.00009 19.7172 2.00009 19.2531V14.7491C2.00009 13.7831 2.78409 12.9991 3.75009 12.9991H15.2501ZM21.0011 14.8951V20.2491C21.003 20.4405 20.9317 20.6254 20.8018 20.7659C20.6719 20.9064 20.4932 20.9919 20.3022 21.005C20.1113 21.018 19.9226 20.9576 19.7748 20.836C19.6269 20.7144 19.5312 20.541 19.5071 20.3511L19.5001 20.2491V14.9061C19.9933 15.0295 20.5098 15.0258 21.0011 14.8951ZM20.2511 10.0911C20.7571 10.0911 21.2424 10.2921 21.6003 10.6499C21.9581 11.0078 22.1591 11.4931 22.1591 11.9991C22.1591 12.5051 21.9581 12.9904 21.6003 13.3483C21.2424 13.7061 20.7571 13.9071 20.2511 13.9071C19.7451 13.9071 19.2598 13.7061 18.9019 13.3483C18.5441 12.9904 18.3431 12.5051 18.3431 11.9991C18.3431 11.4931 18.5441 11.0078 18.9019 10.6499C19.2598 10.2921 19.7451 10.0911 20.2511 10.0911ZM15.2461 2.99609C16.2131 2.99609 16.9961 3.78009 16.9961 4.74609V9.24909C16.9961 9.71322 16.8117 10.1583 16.4835 10.4865C16.1553 10.8147 15.7102 10.9991 15.2461 10.9991H3.74609C3.28196 10.9991 2.83685 10.8147 2.50866 10.4865C2.18047 10.1583 1.99609 9.71322 1.99609 9.24909V4.74609C1.99613 4.30675 2.16142 3.88348 2.45914 3.56039C2.75686 3.23729 3.16521 3.03799 3.60309 3.00209L3.74609 2.99609H15.2461ZM20.2511 2.99909C20.4325 2.99913 20.6077 3.06491 20.7443 3.18424C20.8809 3.30356 20.9697 3.46836 20.9941 3.64809L21.0011 3.74909V9.09509C20.51 8.96497 19.9939 8.96153 19.5011 9.08509V3.74909C19.5011 3.55018 19.5801 3.35942 19.7208 3.21876C19.8614 3.07811 20.0522 2.99909 20.2511 2.99909Z" fill="white" style="fill:white;fill-opacity:1;"/>
</svg>
